<?xml version="1.0" encoding="UTF-8"?>
<svg version="1.1" xmlns="http://www.w3.org/2000/svg" width="582" height="190">
<path d="M0 0 C192.06 0 384.12 0 582 0 C582 62.7 582 125.4 582 190 C389.94 190 197.88 190 0 190 C0 127.3 0 64.6 0 0 Z " fill="#FEFEFE" transform="translate(0,0)"/>
<path d="M0 0 C4.3191962 -0.10038357 8.63773871 -0.17216491 12.95776367 -0.21972656 C14.42110042 -0.23959449 15.88436049 -0.26669882 17.34741211 -0.30175781 C34.6987514 -0.70652319 48.80756371 3.51675191 61.703125 15.53125 C65.21891948 19.31013114 67.63973212 23.43629266 70 28 C70.5775 29.010625 71.155 30.02125 71.75 31.0625 C76.22677034 41.58291029 76.52620994 54.13801403 73 65 C66.61080132 80.71888084 57.57364686 90.23494015 42.12890625 97.31640625 C31.00770773 101.64718505 18.85681216 101.55395185 7.7421875 97.26171875 C-5.78279422 91.03868585 -15.45756868 82.56825036 -21.40625 68.72827148 C-24.94273172 58.94431987 -25.625915 50.40046434 -25.3125 40.0625 C-25.28732564 38.58923158 -25.26452896 37.11592055 -25.24414062 35.64257812 C-25.19000548 32.09414057 -25.10426812 28.5473617 -25 25 C-24.40034424 24.88245361 -23.80068848 24.76490723 -23.18286133 24.64379883 C-15.99791448 23.15738342 -10.86946535 20.94701847 -5.6875 15.625 C-2.45931627 10.60338086 -0.88186452 5.85986612 0 0 Z " fill="#283E76" transform="translate(59,45)"/>
<path d="M0 0 C0.33 0 0.66 0 1 0 C1 5.61 1 11.22 1 17 C2.52625 17.2475 4.0525 17.495 5.625 17.75 C13.46932922 19.3520109 18.5095498 23.50937877 23 30 C25.92365285 35.36550522 27.04099983 40.95419329 26 47 C23.31593291 55.1019062 18.49115678 60.96141522 11.0234375 65.09375 C5.22594194 67.58828992 -0.52307043 68.15186624 -6.546875 66.15625 C-13.71750487 62.94033115 -18.60148594 58.27561202 -22.4375 51.4375 C-23 49 -23 49 -23 42 C-28.61 42 -34.22 42 -40 42 C-37.20824878 40.13883252 -35.15017239 39.32440131 -32 38.3125 C-18.28920989 33.3679218 -9.84620669 25.32368358 -3.5625 12.25 C-1.70839161 8.14772203 -0.58181469 4.46726678 0 0 Z " fill="#FBFCFC" transform="translate(83,53)"/>
<path d="M0 0 C0 -0.66 0 -1.32 0 -2 C3.96 -2 7.92 -2 12 -2 C12.12452146 3.51342732 12.21476997 9.02601847 12.2746582 14.54052734 C12.29964898 16.41241737 12.33365373 18.28421135 12.37719727 20.15576172 C12.84330426 40.71930539 12.84330426 40.71930539 7 48 C0.96862654 53.1330838 -5.34342941 54.51133348 -13.10546875 54.39453125 C-18.72539914 53.62852184 -23.98958376 51.01041624 -28 47 C-27.88679697 43.71711224 -26.71715137 42.69645513 -24.4375 40.25 C-23.633125 39.5075 -22.82875 38.765 -22 38 C-18 40 -18 40 -16.1875 41.125 C-11.95530481 42.81787808 -8.23252139 42.49825333 -4.0625 40.8125 C-1.71412955 39.15689134 -1.71412955 39.15689134 -1.6875 36.3125 C-1.790625 35.549375 -1.89375 34.78625 -2 34 C-3.485 34.495 -3.485 34.495 -5 35 C-11.03801292 35.70667114 -16.42248613 36.02977735 -21.5625 32.4375 C-26.06916728 28.38993188 -27.72349937 24.80000634 -28.30859375 18.875 C-28.49861883 13.80766467 -28.50342923 10.06279504 -26.3125 5.4375 C-18.23084294 -3.08100338 -10.68153944 -5.23177442 0 0 Z " fill="#2B4178" transform="translate(272,83)"/>
<path d="M0 0 C6.1596037 2.77240166 10.26303008 7.01404243 12.88671875 13.30859375 C13.874523 20.60226466 12.95587758 27.11152618 8.88671875 33.30859375 C5.50969716 36.99422045 2.19953489 39.16871879 -2.890625 39.4765625 C-3.93347656 39.48300781 -4.97632813 39.48945312 -6.05078125 39.49609375 C-7.61119141 39.51736328 -7.61119141 39.51736328 -9.203125 39.5390625 C-12.11328125 39.30859375 -12.11328125 39.30859375 -16.11328125 37.30859375 C-16.11328125 43.24859375 -16.11328125 49.18859375 -16.11328125 55.30859375 C-20.07328125 55.30859375 -24.03328125 55.30859375 -28.11328125 55.30859375 C-28.11328125 37.15859375 -28.11328125 19.00859375 -28.11328125 0.30859375 C-24.15328125 0.30859375 -20.19328125 0.30859375 -16.11328125 0.30859375 C-16.11328125 0.96859375 -16.11328125 1.62859375 -16.11328125 2.30859375 C-15.28828125 1.81359375 -14.46328125 1.31859375 -13.61328125 0.80859375 C-8.83738621 -1.23821841 -4.89497482 -1.60149823 0 0 Z " fill="#293F77" transform="translate(381.11328125,80.69140625)"/>
<path d="M0 0 C1.35756387 0.70519368 2.69161786 1.45727435 4 2.25 C5.93631077 3.43307008 5.93631077 3.43307008 8 4 C10.26842412 3.30336303 12.03572316 2.26607655 14.06640625 1.046875 C17.19694637 -0.64804369 19.52538524 -0.49637354 23 0 C28.16637452 1.64428869 31.57438907 3.67529375 34.22583008 8.62133789 C35.97918718 14.00858428 35.39692332 19.84028645 35.25 25.4375 C35.23195313 26.74138672 35.21390625 28.04527344 35.1953125 29.38867188 C35.14836607 32.59276543 35.07662908 35.7964789 35 39 C31.04 39 27.08 39 23 39 C22.94392578 36.45345703 22.94392578 36.45345703 22.88671875 33.85546875 C22.82107001 31.63279 22.7546223 29.41013474 22.6875 27.1875 C22.65366211 25.50817383 22.65366211 25.50817383 22.61914062 23.79492188 C22.58369141 22.72177734 22.54824219 21.64863281 22.51171875 20.54296875 C22.48553467 19.55321045 22.45935059 18.56345215 22.43237305 17.54370117 C21.93917377 14.64215216 21.35884111 13.70930002 19 12 C16.20142784 11.58021418 14.70684609 11.49374393 12.37573242 13.16333008 C10.46147229 15.71896077 10.56879449 17.58949692 10.48828125 20.76171875 C10.45283203 21.87998047 10.41738281 22.99824219 10.38085938 24.15039062 C10.35830078 25.31763672 10.33574219 26.48488281 10.3125 27.6875 C10.27833984 28.86634766 10.24417969 30.04519531 10.20898438 31.25976562 C10.12642761 34.17284019 10.06153987 37.08640568 10 40 C6.04 40 2.08 40 -2 40 C-2.04898437 38.14632812 -2.09796875 36.29265625 -2.1484375 34.3828125 C-2.22345414 31.96352598 -2.29900243 29.5442559 -2.375 27.125 C-2.4059375 25.90167969 -2.436875 24.67835937 -2.46875 23.41796875 C-2.50742187 22.25136719 -2.54609375 21.08476563 -2.5859375 19.8828125 C-2.6173584 18.80402832 -2.6487793 17.72524414 -2.68115234 16.61376953 C-2.74676322 13.84238346 -2.74676322 13.84238346 -5 12 C-8 11.66666667 -8 11.66666667 -11 12 C-13.63991268 14.63991268 -13.30240797 15.97946296 -13.4140625 19.6640625 C-13.47207031 21.34628906 -13.47207031 21.34628906 -13.53125 23.0625 C-13.57765625 24.8259375 -13.57765625 24.8259375 -13.625 26.625 C-13.68300781 28.40003906 -13.68300781 28.40003906 -13.7421875 30.2109375 C-13.83668504 33.14036139 -13.91943999 36.0701597 -14 39 C-17.96 39 -21.92 39 -26 39 C-26 26.46 -26 13.92 -26 1 C-22.04 1 -18.08 1 -14 1 C-14 1.66 -14 2.32 -14 3 C-13.175 2.505 -12.35 2.01 -11.5 1.5 C-7.52978628 -0.20152017 -4.22784822 -0.78973014 0 0 Z " fill="#293F77" transform="translate(500,80)"/>
<path d="M0 0 C4.93015153 2.85483107 8.23746224 6.93288932 11.0625 11.8125 C12.60765727 18.30216052 12.25947909 23.79038515 8.95703125 29.6484375 C5.81539149 34.07573291 1.83097675 36.73301938 -3.3125 38.4375 C-10.22642812 39.16280309 -16.27675164 39.0096776 -22.3125 35.4375 C-26.83128845 31.63760972 -29.87994401 27.87684765 -30.6328125 21.890625 C-30.89576603 15.54467981 -30.09030555 10.63044444 -26.3125 5.4375 C-23.9375 3.125 -23.9375 3.125 -21.3125 1.4375 C-20.44625 0.86 -19.58 0.2825 -18.6875 -0.3125 C-12.55859119 -2.58246623 -6.03455898 -2.68717406 0 0 Z " fill="#2B4078" transform="translate(230.3125,81.5625)"/>
<path d="M0 0 C5.56792745 3.07286562 8.65432505 6.83797515 10.6875 12.9375 C11.27624731 20.12569391 10.53919705 25.82693231 6 31.625 C2.0866249 35.86683584 -1.49439239 37.66490376 -7.1796875 38.21484375 C-13.32018846 38.40625587 -18.05221325 38.19887778 -23.3125 34.9375 C-28.44501324 30.00742928 -31.58496553 25.50266136 -31.8125 18.25 C-31.66929586 11.72625603 -29.99596855 7.50901313 -25.3125 2.9375 C-17.28141229 -2.94092503 -9.08596998 -4.05166957 0 0 Z " fill="#2B4078" transform="translate(319.3125,82.0625)"/>
<path d="M0 0 C4.29 0 8.58 0 13 0 C13 14.85 13 29.7 13 45 C20.92 45 28.84 45 37 45 C37 48.63 37 52.26 37 56 C24.79 56 12.58 56 0 56 C0 37.52 0 19.04 0 0 Z " fill="#2D4279" transform="translate(161,64)"/>
<path d="M0 0 C3.96 0 7.92 0 12 0 C12.04898437 1.78148438 12.09796875 3.56296875 12.1484375 5.3984375 C12.22345483 7.72397463 12.29900309 10.04949468 12.375 12.375 C12.4059375 13.550625 12.436875 14.72625 12.46875 15.9375 C12.52675781 17.61972656 12.52675781 17.61972656 12.5859375 19.3359375 C12.6173584 20.37282715 12.6487793 21.4097168 12.68115234 22.47802734 C12.75954472 25.16809835 12.75954472 25.16809835 15 27 C18 27.33333333 18 27.33333333 21 27 C23.63991268 24.36008732 23.30240797 23.02053704 23.4140625 19.3359375 C23.45273437 18.21445313 23.49140625 17.09296875 23.53125 15.9375 C23.5621875 14.761875 23.593125 13.58625 23.625 12.375 C23.66367187 11.19164063 23.70234375 10.00828125 23.7421875 8.7890625 C23.83668504 5.85963861 23.91943999 2.9298403 24 0 C27.96 0 31.92 0 36 0 C36.08117236 4.18789248 36.14059104 8.37420034 36.1875 12.5625 C36.21263672 13.74392578 36.23777344 14.92535156 36.26367188 16.14257812 C36.37241559 29.08307981 36.37241559 29.08307981 31.5 34.7421875 C24.96318007 39.67884839 18.998738 39.7092477 11 39 C6.49334232 36.86526742 3.8258468 34.08177871 1 30 C-0.09911549 26.70265354 -0.1139456 24.27041255 -0.09765625 20.80078125 C-0.09443359 19.59228516 -0.09121094 18.38378906 -0.08789062 17.13867188 C-0.07951172 15.87603516 -0.07113281 14.61339844 -0.0625 13.3125 C-0.05573242 11.40114258 -0.05573242 11.40114258 -0.04882812 9.45117188 C-0.03702883 6.3007613 -0.01909318 3.15037481 0 0 Z " fill="#273D76" transform="translate(432,81)"/>
<path d="M0 0 C3.94533008 1.67804624 5.911254 2.5621935 8.34375 6.2109375 C7.44347412 7.24625476 6.52281965 8.26387915 5.59375 9.2734375 C5.08328125 9.84191406 4.5728125 10.41039063 4.046875 10.99609375 C2.34375 12.2109375 2.34375 12.2109375 0.265625 11.95703125 C-1.65625 11.2109375 -1.65625 11.2109375 -3.65625 10.2109375 C-5.65585012 10.1709455 -7.65672242 10.16746951 -9.65625 10.2109375 C-9.32625 11.2009375 -8.99625 12.1909375 -8.65625 13.2109375 C-6.26389271 14.28057993 -6.26389271 14.28057993 -3.40625 15.0859375 C1.27616646 16.71169198 4.56188986 17.89425797 7.34375 22.2109375 C8.13312363 26.50169122 7.80511632 30.03189023 6.21875 34.0859375 C2.99489373 37.73964127 0.22849951 39.03178813 -4.65625 39.49609375 C-11.3415614 39.67405922 -16.68747946 39.30585556 -22.65625 36.2109375 C-24.65625 34.0234375 -24.65625 34.0234375 -25.65625 32.2109375 C-24.00625 30.2309375 -22.35625 28.2509375 -20.65625 26.2109375 C-18.39827176 26.71271044 -16.45381729 27.30394712 -14.34375 28.2734375 C-11.01739093 29.43379531 -8.1535321 29.34808582 -4.65625 29.2109375 C-4.98625 28.2209375 -5.31625 27.2309375 -5.65625 26.2109375 C-8.86539136 24.82344263 -12.13709941 23.78051227 -15.45703125 22.6875 C-19.08855675 21.01141131 -20.57405229 19.59951406 -22.65625 16.2109375 C-23.5504601 12.74930209 -23.50505158 9.68381193 -22.65625 6.2109375 C-16.93914465 -1.1841754 -8.76677481 -2.60424781 0 0 Z " fill="#2A3F77" transform="translate(420.65625,80.7890625)"/>
<path d="M0 0 C4.29 0 8.58 0 13 0 C13 12.87 13 25.74 13 39 C8.71 39 4.42 39 0 39 C0 26.13 0 13.26 0 0 Z " fill="#263C74" transform="translate(334,81)"/>
<path d="M0 0 C2.12890625 0.41015625 2.12890625 0.41015625 4.69140625 1.91015625 C6.70569554 5.41326805 6.86755624 8.52454956 6.12890625 12.41015625 C4.62890625 15.41015625 4.62890625 15.41015625 2.12890625 17.41015625 C-0.67024848 18.05832118 -3.07057819 18.04846678 -5.87109375 17.41015625 C-8.30228998 15.54000531 -9.51178548 14.1287728 -10.87109375 11.41015625 C-11.27301223 7.79288989 -11.07218227 5.81233329 -9.43359375 2.53515625 C-6.17207775 -0.16951556 -4.14153548 -0.26609536 0 0 Z " fill="#F9F9FB" transform="translate(222.87109375,91.58984375)"/>
<path d="M0 0 C2.5 1.4375 2.5 1.4375 4 4 C4.76004105 8.31481639 4.73570183 11.74317604 2.5 15.5625 C-1.00807283 17.57964187 -4.12552951 18.00307438 -8 17 C-11.0625 14.4375 -11.0625 14.4375 -13 11 C-13.06817573 7.04580795 -12.5665223 4.88377478 -10.4375 1.5625 C-6.95253431 -0.67145236 -4.02642386 -0.78383251 0 0 Z " fill="#F9FAFB" transform="translate(313,92)"/>
<path d="M0 0 C3.29291844 2.11084515 3.88775952 3.64347142 5.0625 7.375 C5 11 5 11 3.0625 14.4375 C-0.53764903 17.4498696 -0.53764903 17.4498696 -4.0625 17.6875 C-8 17 -8 17 -10.5 15 C-12.57342659 10.85314682 -12.58651804 8.61882953 -12 4 C-9.1635787 -0.72736883 -5.07159122 -1.01015267 0 0 Z " fill="#F9FAFB" transform="translate(377,92)"/>
<path d="M0 0 C4.10703441 0.85563217 5.55401113 2.24378009 8 5.625 C8.62491523 9.58279649 8.61006839 11.63363886 6.5 15.0625 C2.97873756 17.26328902 0.04560357 17.42914661 -4 16.625 C-6.5 15.0625 -6.5 15.0625 -8 12.625 C-8.5625 9.1875 -8.5625 9.1875 -8 5.625 C-5.55401113 2.24378009 -4.10703441 0.85563217 0 0 Z " fill="#F9F9FB" transform="translate(264,90.375)"/>
<path d="M0 0 C2 1.5625 2 1.5625 3 4 C2.875 7.625 2.875 7.625 2 11 C-1.46923881 13.31282587 -2.92205575 13.42478586 -7 13 C-8.875 11.9375 -8.875 11.9375 -10 10 C-10.36528977 6.5906288 -10.6140629 4.11976176 -8.9375 1.0625 C-5.84506242 -0.63335287 -3.44485259 -0.43060657 0 0 Z " fill="#2C4279" transform="translate(344,63)"/>
</svg>
